#!OML:ASF F:\VICON\USERDATA\INSTALL\rory3\rory3.ASF
:FULLY-SPECIFIED
:DEGREES
48
root 0.13297137019414465 17.857084851521194 25.946126609928704 0.4501589630216771 -1.2787046486188474 -0.20730475026576434
lfemur -13.672454376511258 -2.8474599371081744 -27.50639474621468
ltibia 43.09572419991137
lfoot -12.90759963050407 -3.1955740110824635
ltoes -2.1845392714757406
rfemur -32.33205440493365 -7.897595641186156 24.066672172730463
rtibia 133.21989358693054
rfoot 17.36603220259144 -6.8528660451577315
rtoes 18.6473664895557
lowerback 16.14277644161535 1.667277247083046 -0.7385848344450283
upperback -0.3662816503177786 2.308382698541226 -0.18275657840081605
thorax -9.835596753325865 1.094124621386733 0.4408260871492388
lowerneck -20.145988220087347 -2.5719976933180155 -1.974423203682922
upperneck 13.381011878515393 -3.751856356727422 3.1351516757477267
head 7.606712350030012 -1.4570416339810266 0.8214003746883534
lclavicle -2.288353724305106e-15 1.3777714984103469e-15
lhumerus -58.267400359627345 -10.70421983954776 96.54633710796686
lradius 98.99063185255301
lwrist 32.03737680657987
lhand -25.231177057210942 1.0681007204121635
lfingers 7.12502
lthumb 1.2883474336761895 31.04296559669174
rclavicle -2.288353724305106e-15 1.3777714984103469e-15
rhumerus -49.0108833643573 6.697612517998029 -98.6351686158252
rradius 108.76813351801385
rwrist -9.294493199816625
rhand -15.980928964201413 39.21346420602061
rfingers 7.12502
rthumb 10.21849350062774 9.459692197573
49
root 0.13185102713975835 17.74174804756124 27.27021263427409 0.7112403983043141 -0.00875636733212326 0.2727538407302932
lfemur -8.258303174235909 -2.996513811104886 -28.421465039240623
ltibia 43.3533129201914
lfoot -16.58877422597661 -2.368226874095491
ltoes -1.2670998449303497
rfemur -41.49828970428787 -9.16059987334593 23.876032344283892
rtibia 126.92449636800642
rfoot 8.561030820473352 -7.555788827017558
rtoes 9.477908619246076
lowerback 16.690826743043928 0.9875977651526751 -1.5162999434397226
upperback -0.14550916481115506 1.246560645008792 0.0756598967975397
thorax -9.898052167377758 0.6518798316128855 1.5138725744433856
lowerneck -20.050161668384174 -2.397470557547802 -2.226923840354917
upperneck 13.293370633575636 -3.384624874141992 3.2307642568690875
head 7.577397025277297 -1.307534055223601 0.9289212827010584
lclavicle -1.8367432245781497e-15 1.7053505377722443e-15
lhumerus -50.56138396582264 -13.927058584610833 97.02375465468872
lradius 101.30943128085846
lwrist 32.57643609539893
lhand -25.084643264404797 1.454556441504785
lfingers 7.12502
lthumb 1.4298649170907987 31.432745931862836
rclavicle -1.8367432245781497e-15 1.7053505377722443e-15
rhumerus -51.36981995923872 6.583472732387312 -98.31344353629561
rradius 108.9063041508961
rwrist -9.707876785614467
rhand -16.049995838356896 39.24413958156904
rfingers 7.12502
rthumb 10.151809640015035 9.471367199299433
50
root 0.11128746404534243 17.60978139590588 28.424177437496184 1.4875336910584047 1.228738604952277 0.6868970223342203
lfemur -3.0292112639868964 -2.6635798554886536 -29.267524104776484
ltibia 41.033695610660004
lfoot -19.64122838794653 -1.9655746274046404
ltoes -1.3677213402244632
rfemur -48.12472464780221 -9.131739379292608 23.350934877976577
rtibia 111.66399007069958
rfoot 4.745366522312513 -9.309194895984332
rtoes 3.138610491152124
lowerback 16.821758049415763 0.39477053422439984 -2.3418306267838425
upperback -0.16192176248031864 0.30475710800436806 0.3057553718366406
thorax -9.915910660602776 0.26191224454809714 2.471903122069083
lowerneck -20.147625288517972 -2.5109361431278057 -2.502811082241199
upperneck 12.995255475636128 -3.4463375849821443 3.5031907168908796
head 7.512456580102832 -1.3355498825093433 1.0644564765758924
lclavicle -1.829119007871119e-15 1.7108959436244847e-15
lhumerus -43.32363474619842 -17.17301128432792 97.28857941190381
lradius 104.70966143426101
lwrist 33.60999650153082
lhand -25.0230249527789 1.8750266847538561
lfingers 7.12502
lthumb 1.4893471648345364 31.85405643997302
rclavicle -1.829119007871119e-15 1.7108959436244847e-15
rhumerus -53.90289499486984 6.916931998752163 -98.18026989389733
rradius 109.62023168207907
rwrist -10.43246470773852
rhand -16.162957285833162 39.417088269177334
rfingers 7.12502
rthumb 10.042724207224007 9.665709449822842
51
root 0.0837067167939601 17.50192879611236 30.01100940224879 2.7067288350320236 2.4680674337367283 1.160596354933812
lfemur 3.210769069339582 -1.7884687302181228 -29.842148453633065
ltibia 35.91528154011539
lfoot -21.157695118545693 -2.0503059424265855
ltoes -2.410745410074325
rfemur -51.43507377976198 -7.018463810842961 22.25494465268106
rtibia 89.37063190268809
rfoot 3.8931794871887533 -13.363673508971491
rtoes -0.6426189552290222
lowerback 16.360127044131215 -0.09717053164220946 -3.2290688067562785
upperback -0.33955006225592066 -0.5008884194438084 0.46289050111947283
thorax -9.782981458800345 -0.06908530926808187 3.4272235097508874
lowerneck -20.340533761517655 -2.651599196375523 -2.68631508264398
upperneck 12.548158163035929 -3.6042899757136837 3.81062664940066
head 7.42072654471181 -1.3868015231867437 1.189775702368746
lclavicle -1.6352531179176684e-15 1.8515185512249953e-15
lhumerus -36.199394771998456 -19.82161706004031 97.16401513370188
lradius 108.76648488136469
lwrist 34.93432896586673
lhand -25.018533947390324 2.2876461299061366
lfingers 7.12502
lthumb 1.4936441821562434 32.265173225714484
rclavicle -1.6352531179176684e-15 1.8515185512249953e-15
rhumerus -56.16851306034069 7.2969550391322535 -98.0768298853464
rradius 110.15134002179558
rwrist -10.931362157812382
rhand -16.100101434992933 39.735014806432595
rfingers 7.12502
rthumb 10.10331598432305 10.005544745609827
